<svg width="56" height="56" viewBox="0 0 56 56" fill="none" xmlns="http://www.w3.org/2000/svg">
<g clip-path="url(#clip0_70_847)">
<path d="M8.85724 44.9574L20.3438 13.3743C20.4415 13.1045 20.6057 12.8637 20.8213 12.6742C21.0368 12.4848 21.2967 12.3529 21.5769 12.2907C21.857 12.2286 22.1483 12.2381 22.4238 12.3186C22.6992 12.399 22.9499 12.5477 23.1525 12.7508L43.2513 32.8496C43.4539 33.0524 43.6021 33.3031 43.682 33.5784C43.762 33.8537 43.7713 34.1448 43.7089 34.4246C43.6465 34.7044 43.5145 34.964 43.3252 35.1793C43.1358 35.3945 42.8953 35.5586 42.6257 35.6562L11.0425 47.1427C10.7375 47.2541 10.4071 47.2761 10.09 47.206C9.77294 47.1359 9.4825 46.9767 9.25289 46.7471C9.02328 46.5175 8.86406 46.227 8.79396 45.91C8.72387 45.5929 8.74582 45.2624 8.85724 44.9574Z" stroke="#E86423" stroke-width="2" stroke-linecap="round" stroke-linejoin="round"/>
<path d="M36.75 15.75C36.75 15.75 36.75 10.5 42 10.5C47.25 10.5 47.25 5.25 47.25 5.25" stroke="#E86423" stroke-width="2" stroke-linecap="round" stroke-linejoin="round"/>
<path d="M31.5 3.5V8.75" stroke="#E86423" stroke-width="2" stroke-linecap="round" stroke-linejoin="round"/>
<path d="M47.25 24.5L50.75 28" stroke="#E86423" stroke-width="2" stroke-linecap="round" stroke-linejoin="round"/>
<path d="M47.25 17.5L52.5 15.75" stroke="#E86423" stroke-width="2" stroke-linecap="round" stroke-linejoin="round"/>
<path d="M17.0822 22.3323L33.6678 38.9179" stroke="#E86423" stroke-width="2" stroke-linecap="round" stroke-linejoin="round"/>
<path d="M22.1178 43.1177L12.8822 33.8821" stroke="#E86423" stroke-width="2" stroke-linecap="round" stroke-linejoin="round"/>
</g>
<defs>
<clipPath id="clip0_70_847">
<rect width="56" height="56" fill="white"/>
</clipPath>
</defs>
</svg>
