<svg width="56" height="56" viewBox="0 0 56 56" fill="none" xmlns="http://www.w3.org/2000/svg">
<g clip-path="url(#clip0_291_961)">
<path d="M35.9603 31.7932C36.2027 31.6319 36.4814 31.5337 36.7713 31.5073C37.0613 31.481 37.3532 31.5273 37.6206 31.6423L47.9369 36.2644C48.2845 36.413 48.5747 36.6702 48.764 36.9975C48.9533 37.3248 49.0315 37.7046 48.9869 38.0801C48.647 40.6199 47.3963 42.9498 45.4673 44.6365C43.5384 46.3233 41.0624 47.252 38.5 47.2501C30.6098 47.2501 23.0428 44.1157 17.4636 38.5365C11.8844 32.9573 8.75 25.3903 8.75 17.5001C8.74804 14.9376 9.6768 12.4617 11.3635 10.5327C13.0503 8.60377 15.3802 7.35305 17.92 7.0132C18.2955 6.9686 18.6752 7.04679 19.0025 7.23607C19.3298 7.42535 19.587 7.71554 19.7356 8.0632L24.3578 18.3882C24.4714 18.6534 24.5176 18.9425 24.4924 19.2299C24.4673 19.5173 24.3714 19.794 24.2134 20.0354L19.5388 25.5938C19.3729 25.844 19.2749 26.133 19.2542 26.4324C19.2335 26.7319 19.2908 27.0316 19.4206 27.3023C21.2297 31.0057 25.0578 34.7879 28.7722 36.5794C29.0443 36.7087 29.3454 36.7648 29.6457 36.7421C29.9461 36.7195 30.2354 36.6189 30.485 36.4504L35.9603 31.7932Z" stroke="#E86423" stroke-width="2" stroke-linecap="round" stroke-linejoin="round"/>
</g>
<defs>
<clipPath id="clip0_291_961">
<rect width="56" height="56" fill="white"/>
</clipPath>
</defs>
</svg>
