<svg width="28" height="28" viewBox="0 0 28 28" fill="none" xmlns="http://www.w3.org/2000/svg">
<circle cx="14" cy="14" r="13.5" stroke="#1E2A3C"/>
<g clip-path="url(#clip0_194_793)">
<path d="M17.5968 16.4375C16.7406 16.9812 15.5624 17.1969 14.7843 17.2781L15.4374 17.9219L17.8218 20.3062C18.6937 21.2 17.2749 22.5969 16.3937 21.7344C15.7968 21.1281 14.9218 20.2531 14.0093 19.3406L11.6249 21.7312C10.7437 22.5906 9.32495 21.1813 10.2062 20.3031C10.8124 19.6969 11.6781 18.8219 12.5906 17.9187L13.2343 17.275C12.4656 17.1937 11.2687 16.9906 10.4031 16.4344C9.38432 15.7781 8.93745 15.3938 9.3312 14.5906C9.56245 14.1344 10.1968 13.75 11.0374 14.4125C11.0374 14.4125 12.1718 15.3156 14.0031 15.3156C15.8343 15.3156 16.9687 14.4125 16.9687 14.4125C17.8093 13.7531 18.4406 14.1344 18.6749 14.5906C19.0624 15.3938 18.6156 15.7781 17.5968 16.4375ZM9.94682 10.0531C9.94682 7.8125 11.7687 6 13.9999 6C16.2312 6 18.0531 7.8125 18.0531 10.0531C18.0531 12.2844 16.2312 14.0969 13.9999 14.0969C11.7687 14.0969 9.94682 12.2844 9.94682 10.0531ZM12.0093 10.0531C12.0093 11.15 12.9031 12.0437 13.9999 12.0437C15.0968 12.0437 15.9906 11.15 15.9906 10.0531C15.9906 8.94687 15.0968 8.05312 13.9999 8.05312C12.9031 8.05312 12.0093 8.94687 12.0093 10.0531Z" fill="#E86423"/>
</g>
<defs>
<clipPath id="clip0_194_793">
<rect width="10" height="16" fill="white" transform="translate(9 6)"/>
</clipPath>
</defs>
</svg>
