<svg width="28" height="28" viewBox="0 0 28 28" fill="none" xmlns="http://www.w3.org/2000/svg">
<circle cx="14" cy="14" r="13.5" stroke="#1E2A3C"/>
<path d="M21.5999 9.66798L21.5998 9.66796L21.5993 9.67054C21.5454 9.93301 21.373 10.3276 21.1418 10.7749C20.9112 11.2212 20.624 11.7162 20.3433 12.1784C20.0627 12.6405 19.7888 13.0692 19.5849 13.3827C19.4829 13.5394 19.3984 13.6673 19.3394 13.7561C19.3098 13.8004 19.2867 13.8351 19.2708 13.8586L19.2527 13.8855L19.2498 13.8898L19.2494 13.8894L19.2451 13.8968C19.1539 14.0515 19.0842 14.1761 19.0742 14.308C19.064 14.4426 19.1158 14.5779 19.2467 14.7556C19.2549 14.7674 19.2711 14.7866 19.2924 14.8106C19.3148 14.8359 19.3445 14.8684 19.3804 14.9074C19.4188 14.949 19.4646 14.9982 19.5164 15.0539C19.5616 15.1025 19.6113 15.156 19.6648 15.2137C19.8949 15.4621 20.1955 15.7904 20.5033 16.1479C20.8111 16.5054 21.1256 16.8919 21.3838 17.2566C21.6425 17.622 21.8424 17.9626 21.9238 18.2292C21.9946 18.4821 21.9658 18.663 21.8693 18.7804C21.772 18.8987 21.5975 18.9631 21.3531 18.9631H19.6037C19.4432 18.9631 19.3124 18.9295 19.1877 18.8608C19.0621 18.7915 18.9412 18.6858 18.8018 18.5387C18.6888 18.4195 18.5652 18.2749 18.418 18.1027C18.3834 18.0622 18.3475 18.0202 18.3101 17.9766C18.114 17.7481 17.8786 17.4782 17.581 17.165L17.5805 17.1645C16.5406 16.1113 16.0856 15.9632 15.8106 15.9632C15.6715 15.9632 15.5615 15.9747 15.4817 16.0338C15.4003 16.094 15.3587 16.1966 15.3362 16.3541C15.3135 16.5123 15.3088 16.7352 15.3095 17.0469C15.3098 17.1706 15.311 17.3082 15.3123 17.4616C15.3143 17.6965 15.3166 17.9684 15.3166 18.2845C15.3166 18.5083 15.2825 18.6706 15.1246 18.7819C14.9615 18.8968 14.6595 18.9631 14.1027 18.9631C12.2649 18.9631 10.2378 17.7876 8.79603 15.6109L8.7958 15.6106C7.7117 14.0127 7.02166 12.6096 6.60275 11.5457C6.39328 11.0137 6.25166 10.5667 6.16246 10.2227C6.073 9.87768 6.03691 9.63868 6.03691 9.52172C6.03691 9.3877 6.06179 9.2686 6.14025 9.18264C6.21819 9.09725 6.35617 9.03691 6.60023 9.03691H8.34964C8.56762 9.03691 8.71156 9.08676 8.82246 9.19329C8.93543 9.30181 9.01854 9.4731 9.10436 9.72711C9.53306 11.0421 10.109 12.2743 10.6525 13.1783C10.9243 13.6302 11.1885 14.0012 11.423 14.2597C11.5401 14.3889 11.6507 14.491 11.7519 14.561C11.8522 14.6305 11.9473 14.6712 12.0326 14.6712C12.0909 14.6712 12.1453 14.6642 12.1932 14.6413C12.2421 14.6179 12.2811 14.5795 12.3108 14.5225C12.3686 14.412 12.3933 14.2276 12.3933 13.931V11.2187H12.3933L12.3932 11.2168C12.3601 10.5842 12.1837 10.2394 12.0145 9.9967C11.9748 9.93981 11.9356 9.88867 11.8994 9.84139L11.8932 9.83327C11.855 9.78345 11.8206 9.73822 11.7914 9.69374C11.7335 9.60541 11.6981 9.52285 11.6981 9.42179C11.6981 9.23741 11.8495 9.03691 12.1067 9.03691H14.8572C15.0341 9.03691 15.1436 9.08668 15.2116 9.18431C15.2821 9.28539 15.3135 9.44499 15.3135 9.67796V13.3249C15.3135 13.5253 15.3569 13.6652 15.4182 13.7562C15.4793 13.8468 15.5595 13.8901 15.6296 13.8901C15.7503 13.8901 15.86 13.8523 15.9901 13.7611C16.1189 13.6709 16.2697 13.527 16.4733 13.3128L16.4733 13.3128L16.4746 13.3112C17.1071 12.5673 17.6462 11.6229 18.0269 10.8657C18.2173 10.4868 18.3683 10.1543 18.4718 9.91653C18.5235 9.79762 18.5633 9.70236 18.5902 9.63679C18.6037 9.604 18.6139 9.57863 18.6208 9.56144L18.6286 9.54187L18.6305 9.53687L18.631 9.53559L18.6311 9.53545C18.6311 9.53542 18.6311 9.53538 18.6311 9.53535C18.6848 9.40146 18.7603 9.27734 18.8742 9.18663C18.9876 9.09637 19.1417 9.03691 19.3571 9.03691H21.1065C21.3656 9.03691 21.5098 9.10723 21.5797 9.21279C21.6505 9.31988 21.6538 9.47601 21.5999 9.66798Z" fill="#E86423" stroke="#E86423" stroke-width="0.0738198"/>
</svg>
