<svg width="28" height="28" viewBox="0 0 28 28" fill="none" xmlns="http://www.w3.org/2000/svg">
<circle cx="14" cy="14" r="13.5" stroke="#1E2A3C"/>
<g clip-path="url(#clip0_194_813)">
<path d="M22 13.7867C22 18.0889 18.48 21.5733 14.1422 21.5733C12.7733 21.5733 11.4756 21.2178 10.3378 20.5956L6 22L7.42222 17.8222C6.71111 16.6489 6.30222 15.2622 6.30222 13.8044C6.28444 9.48444 9.80444 6 14.1422 6C18.48 6 22 9.48444 22 13.7867ZM14.1422 7.24444C10.4978 7.24444 7.54667 10.1778 7.54667 13.7867C7.54667 15.2267 8.00889 16.5422 8.80889 17.6267L7.99111 20.0622L10.5333 19.2622C11.5822 19.9556 12.8267 20.3467 14.16 20.3467C17.7867 20.3467 20.7556 17.4133 20.7556 13.7867C20.7556 10.16 17.7867 7.24444 14.1422 7.24444ZM18.1067 15.5822C18.0533 15.5111 17.9289 15.4578 17.7333 15.3511C17.5378 15.2622 16.5956 14.8 16.4178 14.7289C16.24 14.6578 16.1156 14.64 15.9911 14.8178C15.8667 15.0133 15.4933 15.44 15.3867 15.5644C15.28 15.6889 15.1556 15.7067 14.9778 15.6178C14.7822 15.5289 14.16 15.3156 13.4311 14.6756C12.8622 14.1778 12.4711 13.5378 12.3644 13.36C12.2578 13.1644 12.3467 13.0578 12.4533 12.9689C12.5422 12.88 12.6489 12.7378 12.7378 12.6311C12.8267 12.5244 12.8622 12.4356 12.9333 12.3111C13.0044 12.1867 12.9689 12.08 12.9156 11.9733C12.8622 11.8844 12.4889 10.9422 12.3289 10.5511C12.1689 10.1778 12.0089 10.2311 11.9022 10.2311C11.7956 10.2311 11.6533 10.2133 11.5289 10.2133C11.4044 10.2133 11.1911 10.2667 11.0133 10.4444C10.8356 10.64 10.3378 11.1022 10.3378 12.0444C10.3378 12.9867 11.0311 13.8933 11.12 14.0178C11.2089 14.1422 12.4533 16.1333 14.4089 16.8978C16.3644 17.6622 16.3644 17.4133 16.72 17.3778C17.0756 17.3422 17.8578 16.9156 18.0178 16.4711C18.16 16.0444 18.16 15.6711 18.1067 15.5822Z" fill="#E86423"/>
</g>
<defs>
<clipPath id="clip0_194_813">
<rect width="16" height="16" fill="white" transform="translate(6 6)"/>
</clipPath>
</defs>
</svg>
